<?xml version="1.0" encoding="iso-8859-1"?>
<!-- Uploaded to: SVG Repo, www.svgrepo.com, Generator: SVG Repo Mixer Tools -->
<svg version="1.1" id="Layer_1" xmlns="http://www.w3.org/2000/svg" xmlns:xlink="http://www.w3.org/1999/xlink" 
	 viewBox="0 0 512 512" xml:space="preserve">
<path style="fill:#F1F4FB;" d="M485.083,466.756H26.917c-10.122,0-18.327-8.205-18.327-18.327V63.57
	c0-10.122,8.205-18.327,18.327-18.327h458.166c10.122,0,18.327,8.205,18.327,18.327V448.43
	C503.409,458.552,495.205,466.756,485.083,466.756z"/>
<polygon style="fill:#707487;" points="182.694,292.653 144.208,294.809 173.53,402.613 210.183,402.613 "/>
<path style="fill:#5B5D6E;" d="M182.694,292.653l-38.486,2.156l6.938,25.508c12.313,1.881,25.868,4.32,40.306,7.372L182.694,292.653
	z"/>
<path style="fill:#D5DCED;" d="M118.55,45.244h366.532c10.122,0,18.327,8.205,18.327,18.327v18.327H118.55V45.244z"/>
<path style="fill:#FF507D;" d="M26.917,45.244h18.327v36.653H8.591V63.57C8.591,53.448,16.795,45.244,26.917,45.244z"/>
<rect x="45.244" y="45.244" style="fill:#FFDC64;" width="36.653" height="36.653"/>
<rect x="81.897" y="45.244" style="fill:#B4E66E;" width="36.653" height="36.653"/>
<path style="fill:#C7CFE2;" d="M466.756,45.244h18.327c10.122,0,18.327,8.205,18.327,18.327v18.327h-36.653V45.244z"/>
<path style="fill:#FFDC64;" d="M329.306,173.53H310.98c-5.06,0-9.163,4.103-9.163,9.163v4.962
	c-76.588,40.919-156.91,48.395-183.388,49.726c-5.102,0.257-9.042,4.268-9.042,9.144v37.276c0,4.876,3.94,8.888,9.042,9.144
	c26.477,1.33,106.801,8.807,183.388,49.726v4.962c0,5.06,4.103,9.163,9.163,9.163h18.327c5.06,0,9.163-4.103,9.163-9.163v-164.94
	C338.47,177.633,334.367,173.53,329.306,173.53z"/>
<path style="fill:#FFC850;" d="M301.817,187.655c-8.313,4.441-16.665,8.419-24.991,12.106v80.984c0,5.884-5.476,10.217-11.217,8.923
	c-66.113-14.906-124.108-23.78-147.18-24.36c-5.102-0.128-9.042-2.134-9.042-4.573V283.8c0,4.876,3.939,8.888,9.042,9.144
	c26.477,1.33,106.8,8.807,183.388,49.726V187.655z"/>
<path style="fill:#7F8499;" d="M146.04,234.974c-11.729,1.389-21.27,2.089-27.611,2.408c-5.102,0.257-9.042,4.268-9.042,9.144
	v37.276c0,4.876,3.94,8.888,9.042,9.144c6.342,0.318,15.883,1.018,27.611,2.408V234.974z"/>
<path style="fill:#707487;" d="M146.04,295.353v-27.568c-11.589-1.454-21.052-2.311-27.611-2.476
	c-5.102-0.128-9.042-2.134-9.042-4.573V283.8c0,1.219,0.246,2.385,0.695,3.45c0.897,2.132,2.606,3.866,4.781,4.843
	c1.087,0.488,2.29,0.787,3.565,0.851c5.993,0.301,14.858,0.951,25.701,2.198C144.785,295.219,145.371,295.274,146.04,295.353z"/>
<path d="M485.083,36.653H26.917C12.075,36.653,0,48.728,0,63.57V448.43c0,14.842,12.075,26.917,26.917,26.917h458.166
	c14.842,0,26.917-12.075,26.917-26.917V63.57C512,48.728,499.925,36.653,485.083,36.653z M494.819,63.57v9.736h-19.472V53.834h9.736
	C490.451,53.834,494.819,58.202,494.819,63.57z M127.141,73.306V53.834h331.025v19.472H127.141z M90.488,73.306V53.834h19.472
	v19.472H90.488z M53.834,73.306V53.834h19.472v19.472H53.834z M26.917,53.834h9.736v19.472H17.181V63.57
	C17.181,58.202,21.549,53.834,26.917,53.834z M485.083,458.166H26.917c-5.369,0-9.736-4.367-9.736-9.736V90.488h477.638V448.43
	C494.819,453.798,490.451,458.166,485.083,458.166z"/>
<path d="M466.756,109.96H45.244c-4.744,0-8.591,3.846-8.591,8.591c0,4.744,3.846,8.591,8.591,8.591h421.512
	c4.744,0,8.591-3.846,8.591-8.591C475.347,113.806,471.5,109.96,466.756,109.96z"/>
<path d="M329.306,164.94H310.98c-7.907,0-14.617,5.198-16.907,12.353c-73.698,43.017-153.528,50.3-176.506,51.508
	c-9.404,0.496-16.77,8.28-16.77,17.724v37.276c0,9.444,7.366,17.228,16.77,17.723c4.579,0.241,11.426,0.725,20.023,1.684
	l25.813,94.901c2.097,7.71,9.142,13.094,17.132,13.094h29.617c0.009,0,0.018,0.002,0.027,0.002c0.011,0,0.023-0.002,0.033-0.002
	h9.135c4.744,0,8.591-3.846,8.591-8.591s-3.846-8.591-8.591-8.591h-2.601l-21.958-80.51c30.325,7.555,65.45,19.772,99.284,39.52
	c2.291,7.157,9.002,12.353,16.907,12.353h18.327c9.79,0,17.754-7.964,17.754-17.754v-164.94
	C347.06,172.904,339.096,164.94,329.306,164.94z M117.978,283.801v-37.276c0-0.317,0.202-0.55,0.491-0.566
	c4.433-0.234,10.904-0.686,18.981-1.55v41.506c-8.077-0.864-14.548-1.316-18.981-1.55
	C118.179,284.351,117.978,284.119,117.978,283.801z M198.935,394.022h-18.402c-0.258,0-0.486-0.174-0.553-0.423l-23.912-87.914
	c6.135,0.958,12.744,2.124,19.741,3.542L198.935,394.022z M329.879,347.633c0,0.316-0.257,0.573-0.573,0.573H310.98
	c-0.316,0-0.573-0.257-0.573-0.573V246.838c0-4.744-3.846-8.591-8.591-8.591s-8.591,3.846-8.591,8.591v86.016
	c-50.866-27.553-103.249-39.544-138.595-44.75v-45.881c35.346-5.206,87.73-17.197,138.595-44.75v12.712
	c0,4.744,3.846,8.591,8.591,8.591s8.591-3.846,8.591-8.591v-27.491c0-0.316,0.257-0.573,0.573-0.573h18.327
	c0.316,0,0.573,0.257,0.573,0.573V347.633z"/>
<path d="M430.103,256.573h-54.98c-4.744,0-8.591,3.846-8.591,8.591c0,4.744,3.846,8.591,8.591,8.591h54.98
	c4.744,0,8.591-3.846,8.591-8.591C438.694,260.419,434.847,256.573,430.103,256.573z"/>
<path d="M375.13,237.103c1.291,0,2.601-0.292,3.835-0.908l36.653-18.327c4.244-2.122,5.964-7.281,3.842-11.525
	c-2.121-4.244-7.281-5.964-11.525-3.842l-36.653,18.327c-4.244,2.122-5.964,7.281-3.842,11.525
	C368.945,235.362,371.978,237.103,375.13,237.103z"/>
<path d="M415.618,312.46l-36.653-18.327c-4.243-2.121-9.403-0.402-11.525,3.842c-2.122,4.244-0.402,9.404,3.842,11.525
	l36.653,18.327c1.234,0.616,2.544,0.908,3.835,0.908c3.151,0,6.185-1.741,7.69-4.751
	C421.582,319.741,419.862,314.581,415.618,312.46z"/>
</svg>